<?xml version="1.0" encoding="UTF-8"?><svg id="uuid-229571ee-b1bf-4b32-b85d-e12820f210af" xmlns="http://www.w3.org/2000/svg" viewBox="0 0 256 256"><defs><style>.uuid-ab4845b8-ad94-46d9-9d09-3f9fcc154039{fill:#144a6e;}.uuid-ab4845b8-ad94-46d9-9d09-3f9fcc154039,.uuid-4e9f6142-c026-44fb-8ca0-d95b368df0ef,.uuid-eae1ad25-f747-4516-a6f4-fdde3107fba2,.uuid-89a9be1d-abb2-4b6e-a82e-03b2921929c5,.uuid-a3c3ba1b-d087-411b-85c8-7d6b50dd356f{stroke-width:0px;}.uuid-4e9f6142-c026-44fb-8ca0-d95b368df0ef{fill:#add9c4;}.uuid-eae1ad25-f747-4516-a6f4-fdde3107fba2{fill:#d3e6ec;}.uuid-89a9be1d-abb2-4b6e-a82e-03b2921929c5{fill:#3d6484;}.uuid-a3c3ba1b-d087-411b-85c8-7d6b50dd356f{fill:#fff;}</style></defs><path class="uuid-89a9be1d-abb2-4b6e-a82e-03b2921929c5" d="M174.23,227.02c0,5.92-7.48,7.08-16.71,7.08s-16.71-4.8-16.71-10.71,7.48-10.71,16.71-10.71,16.71,8.43,16.71,14.34Z"/><path class="uuid-89a9be1d-abb2-4b6e-a82e-03b2921929c5" d="M117.09,223.39c0,5.92-7.48,10.71-16.71,10.71s-16.71-1.17-16.71-7.08,7.48-14.34,16.71-14.34,16.71,4.8,16.71,10.71Z"/><path class="uuid-ab4845b8-ad94-46d9-9d09-3f9fcc154039" d="M165.96,206.25c-.46,0-.92-.04-1.39-.12-4.36-.76-7.28-4.92-6.52-9.28,3.77-21.59,15-33.89,24.02-43.77,2.52-2.76,4.9-5.36,6.77-7.83,8.35-11,10.71-21.29,7.23-31.45-1.44-4.19.8-8.75,4.99-10.19,4.19-1.44,8.75.8,10.19,4.99,5.2,15.17,1.88,31.2-9.62,46.35-2.31,3.04-4.93,5.91-7.7,8.95-8.41,9.21-17.1,18.73-20.07,35.71-.68,3.9-4.07,6.64-7.89,6.64Z"/><path class="uuid-a3c3ba1b-d087-411b-85c8-7d6b50dd356f" d="M174.85,184.05c0,25.01-5.99,43.15-45.92,43.15s-45.92-19.05-45.92-43.15c0-27.97,20.56-62.87,45.92-62.87s45.92,34.9,45.92,62.87Z"/><path class="uuid-ab4845b8-ad94-46d9-9d09-3f9fcc154039" d="M152.2,138.26c0,7.75-10.42,12.94-23.27,12.94s-23.27-5.19-23.27-12.94,10.42-15.13,23.27-15.13,23.27,7.38,23.27,15.13Z"/><path class="uuid-eae1ad25-f747-4516-a6f4-fdde3107fba2" d="M76.28,90.29c-4.7-13.38-10.38-46.31-2.05-65.6,1.64-3.81,5.71-5.99,9.78-5.22,7.57,1.43,20.63,6.21,33.17,21.89,20.31,25.38-40.91,48.93-40.91,48.93Z"/><path class="uuid-ab4845b8-ad94-46d9-9d09-3f9fcc154039" d="M82.06,74.31c-2.59-13.37-3.99-31.4.1-43.46.35-1.04,1.45-1.63,2.51-1.34,6,1.64,15.53,6.06,24.98,17.87,2.28,2.85,2.21,4.67,1.8,6.2-1.97,7.29-14.27,15.92-26.39,22.18-1.24.64-2.74-.08-3.01-1.45Z"/><path class="uuid-eae1ad25-f747-4516-a6f4-fdde3107fba2" d="M181.59,90.29c4.7-13.38,10.38-46.31,2.05-65.6-1.64-3.81-5.71-5.99-9.79-5.22-7.57,1.43-20.63,6.21-33.17,21.89-20.31,25.38,40.91,48.93,40.91,48.93Z"/><path class="uuid-ab4845b8-ad94-46d9-9d09-3f9fcc154039" d="M175.8,74.31c2.59-13.37,3.99-31.4-.1-43.46-.35-1.04-1.45-1.63-2.51-1.34-6,1.64-15.53,6.06-24.98,17.87-2.28,2.85-2.21,4.67-1.8,6.2,1.97,7.29,14.27,15.92,26.39,22.18,1.24.64,2.74-.08,3.01-1.45Z"/><ellipse class="uuid-a3c3ba1b-d087-411b-85c8-7d6b50dd356f" cx="128.93" cy="89.03" rx="54.55" ry="51.65"/><path class="uuid-eae1ad25-f747-4516-a6f4-fdde3107fba2" d="M170.25,96.35c0,18.72-18.5,31.24-41.32,31.24s-41.32-12.53-41.32-31.24,18.5-35.73,41.32-35.73,41.32,17.02,41.32,35.73Z"/><path class="uuid-ab4845b8-ad94-46d9-9d09-3f9fcc154039" d="M169.44,98.96c0,17.63-18.14,29.43-40.51,29.43s-40.51-11.8-40.51-29.43,18.14-33.61,40.51-33.61,40.51,15.98,40.51,33.61Z"/><ellipse class="uuid-4e9f6142-c026-44fb-8ca0-d95b368df0ef" cx="109.35" cy="98.87" rx="6.49" ry="7.94"/><path class="uuid-4e9f6142-c026-44fb-8ca0-d95b368df0ef" d="M155.01,98.87c0,4.39-2.91,7.94-6.49,7.94s-6.49-3.55-6.49-7.94,2.91-7.94,6.49-7.94,6.49,3.55,6.49,7.94Z"/><path class="uuid-4e9f6142-c026-44fb-8ca0-d95b368df0ef" d="M133.96,111.84c0,1.8-2.25,3.25-5.03,3.25s-5.03-1.46-5.03-3.25,2.25-2.3,5.03-2.3,5.03.5,5.03,2.3Z"/><path class="uuid-ab4845b8-ad94-46d9-9d09-3f9fcc154039" d="M113.37,242.07c-4.68-.07-9.91-4.09-11.19-11.67-1.89-11.19,0-30.93,0-30.93h22.37s.42,22.97-.65,30.93c-1.17,8.75-5.85,11.73-10.54,11.67Z"/><path class="uuid-eae1ad25-f747-4516-a6f4-fdde3107fba2" d="M126.41,196.96c0,3.22-1.26,5.83-13.53,5.83s-13.53-2.61-13.53-5.83,6.06-10.12,13.53-10.12,13.53,6.9,13.53,10.12Z"/><path class="uuid-89a9be1d-abb2-4b6e-a82e-03b2921929c5" d="M124.52,220.05c-.05.04-.11.07-.16.12-3.72,3.5-10.59,3.95-15.34,3.28-4.19-.59-6.73-1.97-7.4-3.06-.07-.12-.16-.22-.25-.31-.5,1.74-.3,3.53.19,4.61,2.41,1.37,5.47,1.95,7.02,2.17,1.34.19,2.8.3,4.29.3,3.94,0,8.18-.76,11.5-2.77.51-1.27.44-2.78.15-4.33Z"/><path class="uuid-ab4845b8-ad94-46d9-9d09-3f9fcc154039" d="M144.5,242.07c4.68-.07,9.91-4.09,11.19-11.67,1.89-11.19,0-30.93,0-30.93h-22.37s-.41,22.97.65,30.93c1.17,8.75,5.85,11.73,10.54,11.67Z"/><path class="uuid-eae1ad25-f747-4516-a6f4-fdde3107fba2" d="M131.45,196.96c0,3.22,1.26,5.83,13.53,5.83s13.53-2.61,13.53-5.83-6.06-10.12-13.53-10.12-13.53,6.9-13.53,10.12Z"/><path class="uuid-89a9be1d-abb2-4b6e-a82e-03b2921929c5" d="M156.49,220.08c-.09.09-.18.19-.25.31-.67,1.1-3.22,2.47-7.4,3.06-4.75.67-11.62.22-15.34-3.28-.05-.05-.1-.08-.16-.12-.53,1.91-.39,3.34.15,4.33,3.32,2.02,7.56,2.77,11.5,2.77,1.5,0,2.95-.11,4.29-.3,1.56-.22,4.62-.8,7.02-2.17.52-1.43.66-2.86.19-4.61Z"/><path class="uuid-89a9be1d-abb2-4b6e-a82e-03b2921929c5" d="M203.06,117.36c3.46-1.18,7.33-1.24,10.2-.2.15-1.29.02-2.23-.62-3.53-3.26-.74-7.09-.52-10.63.69-2,.69-3.7,1.64-5.04,2.77-.14,1.51.06,2.98.59,4.17.94-1.61,2.9-3.02,5.49-3.9Z"/><path class="uuid-89a9be1d-abb2-4b6e-a82e-03b2921929c5" d="M204.34,133.44c3.02.43,5.5,1.69,6.97,3.48.69-.93,1.03-2.07,1-3.49-1.95-1.62-4.54-2.74-7.52-3.17-2.96-.43-5.93-.14-8.38.73-1.05,1.59-1.45,3.06-1.74,4.65.07-.05.15-.1.22-.16,1.92-1.76,5.72-2.58,9.45-2.05Z"/><path class="uuid-89a9be1d-abb2-4b6e-a82e-03b2921929c5" d="M186.81,147.76c2.06-1.48,6.18-1.87,9.25-.53,3.31,1.44,5.53,4.11,5.97,7.15,1.02-.68,1.82-1.68,2.35-3.35-1.27-2.89-3.75-5.31-7.05-6.74-2.34-1.02-4.78-1.38-7-1.11-.86.57-3.07,3.04-3.53,4.58h0Z"/><path class="uuid-89a9be1d-abb2-4b6e-a82e-03b2921929c5" d="M184.99,158.45c-2.11-1.06-4.33-1.56-6.41-1.51-1.73,1.24-2.86,2.38-3.71,4.32.12-.04.24-.09.36-.16,2.14-1.37,5.33-1.28,8.33.22,3.28,1.64,5.37,4.48,5.59,7.59,0,.09.02.17.04.25.9-.29,1.96-1.22,2.67-3.01-1.01-3.21-3.44-5.99-6.87-7.71Z"/></svg>