<?xml version="1.0" encoding="UTF-8"?><svg id="uuid-7e8cc52f-27a4-448f-a0fc-5603cc463160" xmlns="http://www.w3.org/2000/svg" viewBox="0 0 256 256"><defs><style>.uuid-d44e4952-95e4-40d2-8bad-baf4c393a8b8{fill:#144a6e;}.uuid-d44e4952-95e4-40d2-8bad-baf4c393a8b8,.uuid-61094703-a277-47d1-943c-2a0f307419e9,.uuid-e20d4859-374b-431f-998b-e66169d8c590,.uuid-6e914d90-28ba-4fbc-863e-c4129ac0c34d{stroke-width:0px;}.uuid-61094703-a277-47d1-943c-2a0f307419e9{fill:#add9c4;}.uuid-e20d4859-374b-431f-998b-e66169d8c590{fill:#d3e6ec;}.uuid-6e914d90-28ba-4fbc-863e-c4129ac0c34d{fill:#fff;}</style></defs><path class="uuid-d44e4952-95e4-40d2-8bad-baf4c393a8b8" d="M162.1,205.65c0,11.36-15.27,18.96-34.1,18.96s-34.1-7.6-34.1-18.96,15.27-22.17,34.1-22.17,34.1,10.81,34.1,22.17Z"/><path class="uuid-e20d4859-374b-431f-998b-e66169d8c590" d="M50.85,135.38c-6.89-19.6-15.21-67.86-3-96.12,2.41-5.58,8.36-8.77,14.34-7.65,11.1,2.09,30.22,9.1,48.6,32.07,29.75,37.19-59.94,71.69-59.94,71.69Z"/><path class="uuid-d44e4952-95e4-40d2-8bad-baf4c393a8b8" d="M59.33,111.96c-3.8-19.59-5.85-46,.15-63.68.52-1.52,2.13-2.39,3.68-1.97,8.79,2.41,22.76,8.87,36.61,26.19,3.34,4.18,3.24,6.84,2.63,9.09-2.89,10.69-20.91,23.33-38.67,32.49-1.81.93-4.02-.12-4.41-2.12Z"/><path class="uuid-e20d4859-374b-431f-998b-e66169d8c590" d="M205.15,135.38c6.89-19.6,15.21-67.86,3-96.12-2.41-5.58-8.36-8.77-14.34-7.65-11.1,2.09-30.22,9.1-48.6,32.07-29.75,37.19,59.94,71.69,59.94,71.69Z"/><path class="uuid-d44e4952-95e4-40d2-8bad-baf4c393a8b8" d="M196.67,111.96c3.8-19.59,5.85-46-.15-63.68-.52-1.52-2.13-2.39-3.68-1.97-8.79,2.41-22.76,8.87-36.61,26.19-3.34,4.18-3.24,6.84-2.63,9.09,2.89,10.69,20.91,23.33,38.67,32.49,1.81.93,4.02-.12,4.41-2.12Z"/><ellipse class="uuid-6e914d90-28ba-4fbc-863e-c4129ac0c34d" cx="128" cy="133.52" rx="79.93" ry="75.68"/><path class="uuid-e20d4859-374b-431f-998b-e66169d8c590" d="M188.54,144.25c0,27.42-27.11,45.78-60.54,45.78s-60.54-18.35-60.54-45.78,27.11-52.35,60.54-52.35,60.54,24.93,60.54,52.35Z"/><path class="uuid-d44e4952-95e4-40d2-8bad-baf4c393a8b8" d="M187.35,148.08c0,25.83-26.57,43.12-59.35,43.12s-59.35-17.29-59.35-43.12,26.57-49.25,59.35-49.25,59.35,23.42,59.35,49.25Z"/><ellipse class="uuid-61094703-a277-47d1-943c-2a0f307419e9" cx="99.3" cy="147.94" rx="9.51" ry="11.63"/><path class="uuid-61094703-a277-47d1-943c-2a0f307419e9" d="M166.21,147.94c0,6.42-4.26,11.63-9.51,11.63s-9.51-5.21-9.51-11.63,4.26-11.63,9.51-11.63,9.51,5.21,9.51,11.63Z"/><path class="uuid-61094703-a277-47d1-943c-2a0f307419e9" d="M135.36,166.95c0,2.63-3.3,4.76-7.36,4.76s-7.36-2.13-7.36-4.76,3.3-3.37,7.36-3.37,7.36.74,7.36,3.37Z"/></svg>