<?xml version="1.0" encoding="UTF-8"?><svg id="uuid-d89945ad-356c-42c8-973c-a191872134bc" xmlns="http://www.w3.org/2000/svg" viewBox="0 0 256 256"><defs><style>.uuid-5bf7d57d-50ec-46ae-9836-6b9fbcaa0451{fill:#144a6e;}.uuid-5bf7d57d-50ec-46ae-9836-6b9fbcaa0451,.uuid-0e7b3d88-34cc-4ada-91d6-6539060ea871,.uuid-a735559c-44d3-4393-af78-ab64ef36373b,.uuid-dda1b190-c6ec-45a0-9c42-bca463f74fe6,.uuid-96ba2d8e-ec9a-43ac-aad2-eccb3a444b7a{stroke-width:0px;}.uuid-0e7b3d88-34cc-4ada-91d6-6539060ea871{fill:#add9c4;}.uuid-a735559c-44d3-4393-af78-ab64ef36373b{fill:#d3e6ec;}.uuid-dda1b190-c6ec-45a0-9c42-bca463f74fe6{fill:#3d6484;}.uuid-96ba2d8e-ec9a-43ac-aad2-eccb3a444b7a{fill:#fff;}</style></defs><path class="uuid-dda1b190-c6ec-45a0-9c42-bca463f74fe6" d="M178.13,224.22c0,6.59-8.34,6.95-18.62,6.95s-18.62-5.34-18.62-11.94,8.34-11.94,18.62-11.94,18.62,10.34,18.62,16.93Z"/><path class="uuid-dda1b190-c6ec-45a0-9c42-bca463f74fe6" d="M114.44,219.23c0,6.59-8.34,11.94-18.62,11.94s-18.62-.35-18.62-6.95,8.34-16.93,18.62-16.93,18.62,5.34,18.62,11.94Z"/><path class="uuid-5bf7d57d-50ec-46ae-9836-6b9fbcaa0451" d="M96.77,189.45c-16.65-10.76-30.3-31.05-32.51-37.5l-5.51,3.49s9.09,33.33,26.79,43.91c17.7,10.58,11.23-9.89,11.23-9.89Z"/><circle class="uuid-a735559c-44d3-4393-af78-ab64ef36373b" cx="59.4" cy="148.46" r="10.11"/><path class="uuid-96ba2d8e-ec9a-43ac-aad2-eccb3a444b7a" d="M53.32,147.08c.51,3.75,3.97,6.37,7.71,5.86,3.75-.51,6.37-3.97,5.86-7.71-.51-3.75-3.97-6.37-7.71-5.86-3.75.51-6.37,3.97-5.86,7.71Z"/><path class="uuid-a735559c-44d3-4393-af78-ab64ef36373b" d="M81.75,81.13c-4.36-15.01-.36-57.09,9.82-77.05.77-1.51,2.7-1.99,4.09-1.03,3.94,2.71,11.93,9.7,21.85,26.34,16.48,27.64-35.76,51.74-35.76,51.74Z"/><path class="uuid-5bf7d57d-50ec-46ae-9836-6b9fbcaa0451" d="M88.64,68.06c-2.52-14.08,2.4-39.91,5.89-50.19.39-1.13,1.82-1.46,2.62-.57,4.19,4.68,6.26,6.39,13.75,19.89,1.75,3.16,1.98,3.49,1.61,5.12-1.84,8.24-12.63,19.07-23.87,25.75Z"/><path class="uuid-96ba2d8e-ec9a-43ac-aad2-eccb3a444b7a" d="M76.85,182.03c0,23.65,3.19,42.59,50.78,42.59s50.78-18.54,50.78-42.59c0-28.95-24.78-70-50.78-70s-50.78,41.05-50.78,70Z"/><path class="uuid-5bf7d57d-50ec-46ae-9836-6b9fbcaa0451" d="M102.73,126.29c0,8.3,11.15,13.85,24.91,13.85s24.91-5.55,24.91-13.85-11.15-16.19-24.91-16.19-24.91,7.9-24.91,16.19Z"/><path class="uuid-a735559c-44d3-4393-af78-ab64ef36373b" d="M173.52,81.13c4.36-15.01.36-57.09-9.82-77.05-.77-1.51-2.7-1.99-4.09-1.03-3.94,2.71-11.93,9.7-21.85,26.34-16.48,27.64,35.76,51.74,35.76,51.74Z"/><path class="uuid-5bf7d57d-50ec-46ae-9836-6b9fbcaa0451" d="M166.63,68.06c2.52-14.08-2.4-39.91-5.89-50.19-.39-1.13-1.82-1.46-2.62-.57-4.19,4.68-6.26,6.39-13.75,19.89-1.75,3.16-1.98,3.49-1.61,5.12,1.84,8.24,12.63,19.07,23.87,25.75Z"/><ellipse class="uuid-a735559c-44d3-4393-af78-ab64ef36373b" cx="127.63" cy="86.99" rx="45.48" ry="42.75"/><path class="uuid-96ba2d8e-ec9a-43ac-aad2-eccb3a444b7a" d="M173.33,106.35c-5.66,9.2-17.12,13.04-27.29,9.4-5.73-2.06-11.93-3.18-18.4-3.18s-12.67,1.12-18.4,3.18c-10.17,3.65-21.63-.19-27.29-9.4-4.76-7.75-7.5-16.81-7.5-26.49,0-28.55,23.82-51.7,53.2-51.7s53.2,23.15,53.2,51.7c0,9.68-2.74,18.74-7.5,26.49Z"/><path class="uuid-a735559c-44d3-4393-af78-ab64ef36373b" d="M85.82,73.23c0,12.99,6.08,16.27,13.99,16.09,8.97-.2,14.49-4.85,27.82-4.85s18.9,4.51,27.87,4.63c7.89.11,13.94-3.17,13.94-15.88,0-11.29-10.98-29.08-41.82-29.08s-41.82,17.79-41.82,29.08Z"/><path class="uuid-5bf7d57d-50ec-46ae-9836-6b9fbcaa0451" d="M87.09,75.85c0,12.59,5.89,15.78,13.57,15.6,8.7-.19,14.05-4.7,26.97-4.7s18.32,4.37,27.03,4.49c7.65.1,13.52-3.08,13.52-15.39,0-10.94-10.64-28.19-40.54-28.19s-40.54,17.25-40.54,28.19Z"/><ellipse class="uuid-0e7b3d88-34cc-4ada-91d6-6539060ea871" cx="148.3" cy="72.87" rx="6.5" ry="7.41"/><ellipse class="uuid-0e7b3d88-34cc-4ada-91d6-6539060ea871" cx="106.97" cy="72.87" rx="6.5" ry="7.41"/><path class="uuid-5bf7d57d-50ec-46ae-9836-6b9fbcaa0451" d="M145.82,241.58c5.44-.08,11.5-3.97,12.99-13.29,2.19-13.77,0-39.12,0-39.12h-25.97s-.48,29.32.75,39.12c1.36,10.77,6.79,13.37,12.23,13.29Z"/><path class="uuid-a735559c-44d3-4393-af78-ab64ef36373b" d="M130.68,184.72c0,3.53,1.46,6.39,15.71,6.39s15.71-2.86,15.71-6.39-7.03-11.1-15.71-11.1-15.71,7.57-15.71,11.1Z"/><path class="uuid-dda1b190-c6ec-45a0-9c42-bca463f74fe6" d="M132.88,214.49c.06.05.12.09.18.15,4.32,4.3,12.29,4.86,17.81,4.04,4.86-.73,7.82-2.42,8.59-3.77.08-.14.18-.27.29-.38.58,2.14.34,4.34-.22,5.67-2.79,1.68-6.35,2.4-8.15,2.67-1.56.23-3.25.37-4.99.37-4.57,0-9.49-.93-13.35-3.41-.59-1.57-.51-3.42-.17-5.33Z"/><path class="uuid-5bf7d57d-50ec-46ae-9836-6b9fbcaa0451" d="M109.45,241.58c-5.44-.08-11.5-3.97-12.99-13.29-2.19-13.77,0-39.12,0-39.12h25.97s.48,29.32-.75,39.12c-1.36,10.77-6.79,13.37-12.23,13.29Z"/><path class="uuid-a735559c-44d3-4393-af78-ab64ef36373b" d="M124.58,184.72c0,3.53-1.46,6.39-15.71,6.39s-15.71-2.86-15.71-6.39,7.03-11.1,15.71-11.1,15.71,7.57,15.71,11.1Z"/><path class="uuid-dda1b190-c6ec-45a0-9c42-bca463f74fe6" d="M95.52,214.52c.11.11.21.24.29.38.78,1.35,3.73,3.04,8.59,3.77,5.52.83,13.49.27,17.81-4.04.06-.06.12-.1.18-.15.61,2.35.45,4.11-.17,5.33-3.85,2.48-8.77,3.41-13.35,3.41-1.74,0-3.43-.14-4.98-.37-1.81-.27-5.36-.99-8.15-2.67-.6-1.76-.76-3.52-.22-5.67Z"/><path class="uuid-5bf7d57d-50ec-46ae-9836-6b9fbcaa0451" d="M115.4,95.44c0,3.67,5.48,7.45,12.24,7.45s12.24-3.78,12.24-7.45-5.48-5.85-12.24-5.85-12.24,2.18-12.24,5.85Z"/></svg>