<?xml version="1.0" encoding="UTF-8"?><svg id="uuid-0ad73199-960b-469b-9061-0bc125d5926d" xmlns="http://www.w3.org/2000/svg" viewBox="0 0 256 256"><defs><style>.uuid-068c90cb-ff12-419b-ac12-295325382435{fill:#d2e5eb;}.uuid-068c90cb-ff12-419b-ac12-295325382435,.uuid-646fd4e3-0de1-43a3-9288-041ca92b810f,.uuid-48125569-95bc-4145-84a4-2b1335c81289,.uuid-e2d68e2d-acf5-427a-86df-c657f06c1d03,.uuid-93663615-c77c-4746-a8cf-410818f0f5ff{stroke-width:0px;}.uuid-646fd4e3-0de1-43a3-9288-041ca92b810f{fill:#e6f3f7;}.uuid-48125569-95bc-4145-84a4-2b1335c81289{fill:#343848;}.uuid-e2d68e2d-acf5-427a-86df-c657f06c1d03{fill:#75c6c4;}.uuid-93663615-c77c-4746-a8cf-410818f0f5ff{fill:#c0d4da;}</style></defs><rect class="uuid-93663615-c77c-4746-a8cf-410818f0f5ff" x="123.93" y="27.6" width="8.14" height="34.62"/><path class="uuid-068c90cb-ff12-419b-ac12-295325382435" d="M213.64,110.51h20.38v57.9h-20.38c-11.19,0-20.27-9.08-20.27-20.27v-17.35c0-11.19,9.08-20.27,20.27-20.27Z" transform="translate(427.39 278.91) rotate(180)"/><path class="uuid-068c90cb-ff12-419b-ac12-295325382435" d="M42.25,110.51h20.38v57.9h-20.38c-11.19,0-20.27-9.08-20.27-20.27v-17.35c0-11.19,9.08-20.27,20.27-20.27Z"/><path class="uuid-93663615-c77c-4746-a8cf-410818f0f5ff" d="M208.46,154.15h-15.09v14.25h15.09c14.12,0,25.56-11.44,25.56-25.56v-6.77c0-1.27-.1-2.52-.28-3.74-1.81,12.34-12.44,21.82-25.29,21.82Z"/><path class="uuid-93663615-c77c-4746-a8cf-410818f0f5ff" d="M22.25,132.33c-.18,1.22-.28,2.47-.28,3.74v6.77c0,14.12,11.44,25.56,25.56,25.56h15.09v-14.25h-15.09c-12.85,0-23.48-9.48-25.29-21.82Z"/><rect class="uuid-068c90cb-ff12-419b-ac12-295325382435" x="44.01" y="64.78" width="167.98" height="144.86" rx="50.73" ry="50.73"/><rect class="uuid-646fd4e3-0de1-43a3-9288-041ca92b810f" x="44.01" y="55.62" width="167.98" height="144.86" rx="50.73" ry="50.73"/><rect class="uuid-93663615-c77c-4746-a8cf-410818f0f5ff" x="81.43" y="59.34" width="93.14" height="128.28" rx="32.61" ry="32.61" transform="translate(251.48 -4.52) rotate(90)"/><rect class="uuid-48125569-95bc-4145-84a4-2b1335c81289" x="81.43" y="64.43" width="93.14" height="128.28" rx="32.61" ry="32.61" transform="translate(256.57 .57) rotate(90)"/><circle class="uuid-068c90cb-ff12-419b-ac12-295325382435" cx="128" cy="25.14" r="14.78" transform="translate(73.94 143.85) rotate(-76.63)"/><path class="uuid-646fd4e3-0de1-43a3-9288-041ca92b810f" d="M140.56,17.37c-2.61-4.21-7.25-7.02-12.56-7.02s-9.96,2.81-12.56,7.02c-.06.52-.11,1.04-.11,1.58,0,7,5.67,12.67,12.67,12.67s12.67-5.67,12.67-12.67c0-.54-.04-1.06-.11-1.58Z"/><path class="uuid-e2d68e2d-acf5-427a-86df-c657f06c1d03" d="M97.52,105.77c-4.77,0-8.65,3.88-8.65,8.65s3.88,8.65,8.65,8.65,8.65-3.88,8.65-8.65-3.88-8.65-8.65-8.65Z"/><path class="uuid-e2d68e2d-acf5-427a-86df-c657f06c1d03" d="M158.48,105.77c-4.77,0-8.65,3.88-8.65,8.65s3.88,8.65,8.65,8.65,8.65-3.88,8.65-8.65-3.88-8.65-8.65-8.65Z"/><path class="uuid-e2d68e2d-acf5-427a-86df-c657f06c1d03" d="M145.89,131.85h-35.78c-1.77,0-3.2,1.43-3.2,3.2,0,11.63,9.46,21.1,21.1,21.1s21.09-9.46,21.09-21.1c0-1.77-1.43-3.2-3.2-3.2Z"/></svg>