<?xml version="1.0" encoding="UTF-8"?><svg id="uuid-f1320839-7763-4076-9aa0-7933494abc72" xmlns="http://www.w3.org/2000/svg" viewBox="0 0 256 256"><defs><style>.uuid-45acaa78-27b2-4c90-811e-f7edfa86e5a1{fill:#d2e5eb;}.uuid-45acaa78-27b2-4c90-811e-f7edfa86e5a1,.uuid-91809572-5738-4b9b-a049-d3dbd007c70c,.uuid-cdb72ba4-4fab-4281-b221-767d5ba64e58,.uuid-98f4a2ea-372d-4507-a994-ff9ec8076712,.uuid-33c773e9-ab56-4c00-b107-838ef493c870,.uuid-10d5dfb1-2841-4a23-b4fc-bc37b960f71d{stroke-width:0px;}.uuid-91809572-5738-4b9b-a049-d3dbd007c70c{fill:#e6f3f7;}.uuid-cdb72ba4-4fab-4281-b221-767d5ba64e58{fill:#343848;}.uuid-98f4a2ea-372d-4507-a994-ff9ec8076712{fill:#e6f3f9;}.uuid-33c773e9-ab56-4c00-b107-838ef493c870{fill:#75c6c4;}.uuid-10d5dfb1-2841-4a23-b4fc-bc37b960f71d{fill:#c0d4da;}</style></defs><path class="uuid-10d5dfb1-2841-4a23-b4fc-bc37b960f71d" d="M128,150.96h0c-23.13,0-41.88,18.75-41.88,41.88v7.47c11.66,8.79,26.16,14.01,41.88,14.01s30.23-5.22,41.88-14.01v-7.47c0-23.13-18.75-41.88-41.88-41.88Z"/><rect class="uuid-10d5dfb1-2841-4a23-b4fc-bc37b960f71d" x="125.15" y="32.98" width="5.7" height="24.24"/><path class="uuid-45acaa78-27b2-4c90-811e-f7edfa86e5a1" d="M194.05,91.04h8.2v40.55h-8.2c-11.19,0-20.27-9.08-20.27-20.27h0c0-11.19,9.08-20.27,20.27-20.27Z" transform="translate(376.03 222.63) rotate(180)"/><path class="uuid-45acaa78-27b2-4c90-811e-f7edfa86e5a1" d="M74.02,91.04h8.2v40.55h-8.2c-11.19,0-20.27-9.08-20.27-20.27h0c0-11.19,9.08-20.27,20.27-20.27Z"/><path class="uuid-10d5dfb1-2841-4a23-b4fc-bc37b960f71d" d="M184.35,121.61h-10.57v9.98h10.57c9.89,0,17.9-8.02,17.9-17.9v-4.74c0-.89-.07-1.76-.19-2.62-1.27,8.64-8.71,15.28-17.71,15.28Z"/><path class="uuid-10d5dfb1-2841-4a23-b4fc-bc37b960f71d" d="M53.94,106.32c-.13.86-.19,1.73-.19,2.62v4.74c0,9.89,8.02,17.9,17.9,17.9h10.57v-9.98h-10.57c-9,0-16.44-6.64-17.71-15.28Z"/><rect class="uuid-45acaa78-27b2-4c90-811e-f7edfa86e5a1" x="69.18" y="59.02" width="117.64" height="101.45" rx="50.73" ry="50.73"/><rect class="uuid-91809572-5738-4b9b-a049-d3dbd007c70c" x="69.18" y="52.6" width="117.64" height="101.45" rx="50.73" ry="50.73"/><rect class="uuid-10d5dfb1-2841-4a23-b4fc-bc37b960f71d" x="95.39" y="55.2" width="65.23" height="89.84" rx="32.61" ry="32.61" transform="translate(228.12 -27.88) rotate(90)"/><rect class="uuid-cdb72ba4-4fab-4281-b221-767d5ba64e58" x="95.39" y="58.77" width="65.23" height="89.84" rx="32.61" ry="32.61" transform="translate(231.69 -24.31) rotate(90)"/><circle class="uuid-45acaa78-27b2-4c90-811e-f7edfa86e5a1" cx="128" cy="31.25" r="10.35" transform="translate(67.99 148.56) rotate(-76.63)"/><path class="uuid-91809572-5738-4b9b-a049-d3dbd007c70c" d="M136.8,25.82c-1.82-2.95-5.08-4.92-8.8-4.92s-6.97,1.97-8.8,4.92c-.05.36-.08.73-.08,1.11,0,4.9,3.97,8.87,8.87,8.87s8.87-3.97,8.87-8.87c0-.38-.03-.74-.08-1.11Z"/><path class="uuid-33c773e9-ab56-4c00-b107-838ef493c870" d="M106.65,87.72c-3.34,0-6.06,2.72-6.06,6.06s2.72,6.06,6.06,6.06,6.06-2.72,6.06-6.06-2.72-6.06-6.06-6.06Z"/><path class="uuid-33c773e9-ab56-4c00-b107-838ef493c870" d="M149.35,87.72c-3.34,0-6.06,2.72-6.06,6.06s2.72,6.06,6.06,6.06,6.06-2.72,6.06-6.06-2.72-6.06-6.06-6.06Z"/><path class="uuid-45acaa78-27b2-4c90-811e-f7edfa86e5a1" d="M178.73,234.37h-101.47l-5.95-49.96c-.7-5.84,3.86-10.97,9.74-10.97h93.88c5.88,0,10.44,5.13,9.74,10.97l-5.95,49.96Z"/><path class="uuid-98f4a2ea-372d-4507-a994-ff9ec8076712" d="M71.4,185.13c.79-4.56,4.76-8.13,9.66-8.13h93.88c4.9,0,8.86,3.56,9.66,8.13l.09-.72c.7-5.84-3.86-10.97-9.74-10.97h-93.88c-5.88,0-10.44,5.13-9.74,10.97l.09.72Z"/><rect class="uuid-10d5dfb1-2841-4a23-b4fc-bc37b960f71d" x="73.57" y="233.81" width="108.85" height="8.56" rx="4.28" ry="4.28"/><circle class="uuid-10d5dfb1-2841-4a23-b4fc-bc37b960f71d" cx="128" cy="204.52" r="9.45" transform="translate(-107.13 150.41) rotate(-45)"/><circle class="uuid-98f4a2ea-372d-4507-a994-ff9ec8076712" cx="128" cy="206.66" r="9.45" transform="translate(-102.65 283.43) rotate(-76.64)"/><path class="uuid-33c773e9-ab56-4c00-b107-838ef493c870" d="M140.53,105.99h-25.06c-1.24,0-2.24,1-2.24,2.24,0,8.15,6.63,14.77,14.77,14.77s14.77-6.63,14.77-14.77c0-1.24-1-2.24-2.24-2.24Z"/></svg>