<?xml version="1.0" encoding="UTF-8"?><svg id="uuid-b916b85f-9d4d-4bfd-9b59-0f0ee39a403f" xmlns="http://www.w3.org/2000/svg" viewBox="0 0 195.33 195.33"><defs><style>.uuid-a39b4b29-dc1e-4f3e-b65a-49e3c8ccb281{fill:#000;}.uuid-a39b4b29-dc1e-4f3e-b65a-49e3c8ccb281,.uuid-94bbfa39-457b-4b36-814c-771cd04eb7a4{stroke-width:0px;}.uuid-94bbfa39-457b-4b36-814c-771cd04eb7a4{fill:#fff;}</style></defs><g id="uuid-415e3f09-2899-423f-8988-56b70d22562c"><circle class="uuid-94bbfa39-457b-4b36-814c-771cd04eb7a4" cx="97.66" cy="97.66" r="97.66"/><circle class="uuid-a39b4b29-dc1e-4f3e-b65a-49e3c8ccb281" cx="97.66" cy="97.66" r="88.73"/><circle class="uuid-94bbfa39-457b-4b36-814c-771cd04eb7a4" cx="97.66" cy="97.66" r="79.58"/></g><g id="uuid-dce26de4-7260-4178-921c-a992adfee6d8"><path class="uuid-a39b4b29-dc1e-4f3e-b65a-49e3c8ccb281" d="M97.66,155.75h-7.26c-9.08-24.71-22.32-60.63-31.09-83.35-4.31-11.36-6.93-12.89-16.31-13.81v-4.3h35.09v4.3c-5.12,0-7.78.37-8.46,1.36-.8,1.15.74,3.85,2.1,7.34,3.85,11.21,16.23,46.96,25.93,72.44,9.7-25.48,21.09-61.59,24.59-72.84,1.52-4.96,2.23-6.11,1.97-6.93-.37-1.17-3.04-1.36-7.99-1.36v-4.3h36.09v4.3c-9.39.92-12,2.46-16.31,13.81-8.77,22.72-22.01,58.64-31.09,83.35,0,0-7.26,0-7.26,0Z"/></g></svg>